<svg viewBox="0 0 612 792" xmlns="http://www.w3.org/2000/svg"><g transform="translate(14.3375 -10.82435)"><path d="m247.1 371.8v34c0 6.2-1.7 8.3-6.5 8.8-7.8.7-9.6-.6-11.3-6.9-.6-2.1-2.5-4.1-4.3-5.5s-4.2-1.9-6.3-2.8c-4.6-2-7-5.5-7-10.5-.1-11.3-.1-22.6 0-33.9 0-5.5 2.9-9.1 7.9-11 5.2-1.9 9.7-3.7 10.7-10.7.8-5.6 6.7-4.2 10.9-4.1 4.1.1 5.8 3 6 6.7.2 6.3.1 12.6.1 19-.2 5.6-.2 11.2-.2 16.9z"/><path d="m336.2 371.3c0-11 .1-22 0-33-.1-9.4 4.6-10.4 13.5-8.7 1.6.3 3.7 3.1 3.9 5 .6 4.3 2.7 6.6 6.5 7.7 1.4.4 2.8 1.1 4.1 1.7 5 2.1 7.5 5.8 7.5 11.2v33c0 5.7-2.7 9.5-7.9 11.4s-9.7 3.7-10.7 10.7c-.8 5.7-6.7 4.1-10.9 4-3.8-.1-5.7-2.6-5.9-6.2-.2-5.6-.2-11.3-.2-17 .1-6.5.1-13.1.1-19.8z"/><path d="m260.1 459.6c-2.8-3.9-5.7-7.8-8.5-11.8-5.4 4.6-8 12-6.2 17.3 2.3 6.8 8.4 8.1 12.9 2.6 2-2.4 3-5.5 4.8-8.1.9-1.4 2.5-2.4 3.7-3.5.9 1.6 2.4 3.2 2.6 4.9 1 8-4.1 18.5-10.6 21.8-7 3.4-13.7 2.1-19.7-2.3-6.4-4.8-9-14.2-6.9-22.6 2-8.1 7.5-13.6 13.6-18.6 2.7-2.1 3.9-3.9 3.2-7.9-.7-3.9.9-8.2 1.4-12.4.2-1.6.4-3.3.4-4.9 0-22.8 0-45.7 0-68.5 0-1.3-.3-2.8.2-4 .4-1 1.7-2 2.8-2.2.5-.1 1.8 1.4 2.1 2.3.4 1.2.2 2.6.2 4 0 22.3-.1 44.7.1 67 0 3.5 2.1 6.9 2 10.4 0 5.6-1.1 11.2-1.5 16.8-.2 2.1-.1 4.4.4 6.5 1.2 4.2 4.5 7.9 4.4 12.5-.4.1-.9.4-1.4.7z"/><path d="m286.7 371.8c0 9.3.1 18.6-.1 28 0 1.6-1.5 3.2-2.3 4.8-.9-1.5-2.6-3-2.6-4.5-.2-18.8-.2-37.6 0-56.4 0-1.5 1.7-3 2.5-4.5.8 1.6 2.3 3.2 2.3 4.8.3 9.2.2 18.5.2 27.8z"/><path d="m309.7 371.8c0 9.3.1 18.6-.1 28 0 1.6-1.5 3.2-2.3 4.8-.9-1.7-2.6-3.3-2.6-5-.2-18.5-.2-36.9 0-55.4 0-1.7 1.6-3.4 2.5-5.1.8 1.7 2.3 3.5 2.3 5.2.3 9.2.2 18.3.2 27.5z"/><path d="m263.7 372c0 9.3.1 18.6-.1 27.9 0 1.6-1.5 3.1-2.4 4.7-.9-1.6-2.5-3.1-2.5-4.7-.2-18.8-.2-37.6 0-56.4 0-1.5 1.8-2.9 2.7-4.3.7 1.5 2.1 2.9 2.1 4.4.3 9.4.2 18.9.2 28.4z"/><path d="m327.6 371.3c0-9.2-.1-18.3.1-27.4 0-1.6 1.5-3.2 2.3-4.8.9 1.5 2.5 3 2.5 4.5.2 18.8.2 37.6 0 56.4 0 1.5-1.7 3-2.6 4.5-.8-1.6-2.2-3.2-2.3-4.8-.1-9.4 0-18.9 0-28.4z"/><path d="m279.1 372.4c0 9.1.1 18.3-.1 27.4 0 1.6-1.5 3.2-2.3 4.7-.9-1.5-2.6-3-2.6-4.6-.2-18.8-.2-37.6 0-56.3 0-1.5 1.8-3 2.7-4.5.8 1.4 2.2 2.9 2.3 4.3.1 9.7 0 19.3 0 29z"/><path d="m271.48086 372.77583c0 9.1.1 18.3-.1 27.4 0 1.6-1.5 3.2-2.3 4.7-.9-1.5-2.6-3-2.6-4.6-.2-18.8-.2-37.6 0-56.3 0-1.5 1.8-3 2.7-4.5.8 1.4 2.2 2.9 2.3 4.3.1 9.7 0 19.3 0 29z"/><path d="m294.5 371.7c0 9.3.1 18.6-.1 27.9 0 1.7-1.8 3.3-2.8 4.9-.7-1.6-2.1-3.3-2.1-4.9-.1-18.6-.2-37.2 0-55.8 0-1.6 1.5-3.1 2.3-4.7.9 1.6 2.5 3.1 2.5 4.7.3 9.3.2 18.6.2 27.9z"/><path d="m302 371.9c0 9.3.1 18.6-.1 27.9 0 1.6-1.5 3.2-2.3 4.7-.9-1.5-2.6-3-2.6-4.6-.2-18.8-.2-37.6 0-56.3 0-1.5 1.8-3 2.7-4.5.8 1.4 2.2 2.9 2.2 4.3.2 9.5.1 19 .1 28.5z"/><path d="m312.4 371.8c0-9.3-.1-18.6.1-27.9 0-1.6 1.4-3.2 2.2-4.8.9 1.5 2.7 3 2.7 4.5.2 18.8.2 37.6 0 56.3 0 1.5-1.7 3-2.7 4.6-.8-1.6-2.2-3.2-2.2-4.8-.2-9.2-.1-18.6-.1-27.9z"/><path d="m324.9 372c0 9.3.1 18.6-.1 27.9 0 1.6-1.6 3.1-2.4 4.6-.9-1.6-2.4-3.2-2.5-4.8-.2-18.6-.2-37.2 0-55.9 0-1.6 1.6-3.2 2.4-4.8.9 1.7 2.5 3.3 2.5 5 .2 9.4.1 18.7.1 28z"/></g></svg>